<svg width="19" height="19" viewBox="0 0 19 19" fill="none" xmlns="http://www.w3.org/2000/svg">
<path d="M9.28871 3.13399C9.0809 3.19336 8.9807 3.24531 8.8434 3.36406C8.76918 3.43086 8.03812 4.34004 7.22172 5.38652C6.40531 6.43301 5.71508 7.29766 5.6891 7.30879C5.65941 7.31992 4.82816 7.01934 3.84476 6.63711L2.05238 5.95059L1.77406 5.96543C1.34359 5.99141 1.02074 6.20664 0.850038 6.58887C0.690468 6.9377 0.683046 6.89316 1.81488 11.2461C2.52367 13.9773 2.88363 15.3021 2.94301 15.4061C3.05434 15.5953 3.22133 15.74 3.44398 15.8439L3.61098 15.9219H9.52992H15.4489L15.6159 15.8439C15.8385 15.74 16.0055 15.5953 16.1168 15.4061C16.2467 15.1834 18.2877 7.3125 18.2877 7.03047C18.2877 6.71875 18.195 6.48867 17.9723 6.26973C17.7311 6.02852 17.4936 5.93945 17.1411 5.96914C16.937 5.98398 16.5993 6.10274 15.1631 6.65938C14.2094 7.02676 13.4041 7.31992 13.3745 7.30879C13.3448 7.29766 12.6545 6.43301 11.8381 5.38652C11.0217 4.34004 10.2944 3.43086 10.2202 3.36777C10.1459 3.30098 10.0235 3.22305 9.94926 3.19336C9.78226 3.12285 9.44086 3.09317 9.28871 3.13399Z" fill="#49C2BB"/>
</svg>
