<svg width="19" height="19" viewBox="0 0 19 19" fill="none" xmlns="http://www.w3.org/2000/svg">
<path d="M1.89062 9.50195V17.1094H2.54004H3.18945V9.50195V1.89453H2.54004H1.89062V9.50195Z" fill="#49C2BB"/>
<path d="M4.41406 7.61596C4.41406 11.9763 4.41406 12.0728 4.48457 12.0246C5.20078 11.5013 5.84277 11.1265 6.4959 10.8445C7.63887 10.3546 8.60371 10.1542 10.1104 10.0986C11.1309 10.0615 11.5984 10.0021 12.3555 9.81655C13.6432 9.50112 14.9197 8.85542 15.9885 7.99077C16.3744 7.67905 17.1314 6.95542 17.1018 6.92944C17.0906 6.91831 16.7715 6.89233 16.3893 6.87006C13.9586 6.73276 12.0215 6.15385 10.1846 5.01831C9.4832 4.58042 9.19375 4.42456 8.62969 4.17963C7.79473 3.81596 6.82617 3.5228 5.87988 3.34838C5.49395 3.27788 4.62559 3.15913 4.48086 3.15913C4.41777 3.15913 4.41406 3.36694 4.41406 7.61596Z" fill="#49C2BB"/>
</svg>
