<svg width="19" height="19" viewBox="0 0 19 19" fill="none" xmlns="http://www.w3.org/2000/svg">
<path d="M7.11387 1.31211C6.86523 1.46055 6.82812 1.59414 6.82812 2.39199V3.08594H7.40332H7.97852V2.7334V2.38086H9.48145H10.9844V2.7334V3.08594H11.5596H12.1348V2.39199C12.1348 1.58672 12.0977 1.45684 11.8416 1.31211C11.6969 1.23047 11.6932 1.23047 9.47773 1.23047C7.2623 1.23047 7.25488 1.23418 7.11387 1.31211Z" fill="#49C2BB"/>
<path d="M0.849992 4.18965C0.642179 4.25644 0.441789 4.38633 0.282218 4.56445C-0.0146566 4.89473 -0.00723477 4.81309 0.00389804 7.33281C0.0150309 9.39238 0.0187418 9.5668 0.0818277 9.68926C0.189445 9.90449 0.378703 10.1049 0.56425 10.1977C0.668156 10.2496 2.03749 10.5799 4.19726 11.0771C6.10097 11.515 7.67812 11.875 7.70409 11.875C7.73749 11.875 7.75234 11.6672 7.75976 11.0809C7.77089 10.1939 7.78202 10.1605 8.05292 10.001C8.17167 9.93047 8.24589 9.92676 9.47792 9.92676C10.71 9.92676 10.7842 9.93047 10.9029 10.001C11.1738 10.1605 11.185 10.2014 11.1961 11.0252C11.2035 11.4297 11.2221 11.7637 11.2406 11.7637C11.3074 11.7637 18.1281 10.3127 18.2543 10.2719C18.5586 10.1754 18.8332 9.90449 18.9482 9.6002C18.9779 9.51484 18.9928 8.86914 18.9928 7.28828C18.9965 4.80937 19.0039 4.89102 18.7107 4.56445C18.618 4.46055 18.4547 4.33066 18.3508 4.275L18.1615 4.1748L9.55214 4.16738C4.81698 4.16367 0.901945 4.1748 0.849992 4.18965Z" fill="#49C2BB"/>
<path d="M8.82812 12.2334V13.4766H9.47754H10.127V12.2334V10.9902H9.47754H8.82812V12.2334Z" fill="#49C2BB"/>
<path d="M0.890625 13.7036C0.890625 14.9542 0.90918 16.1045 0.927734 16.2567C1.02051 16.9878 1.60312 17.6038 2.31934 17.7411C2.48262 17.7708 4.4791 17.7782 9.61133 17.7708L16.6807 17.7596L16.8922 17.6817C17.5082 17.4479 17.9535 16.8913 18.0352 16.2567C18.0723 15.9561 18.0871 11.4325 18.05 11.4325C18.0166 11.4325 11.348 12.8426 11.2738 12.8649C11.2182 12.8797 11.2107 12.9614 11.1996 13.5403C11.1885 14.1637 11.1848 14.2045 11.0994 14.3233C10.9398 14.5422 10.899 14.5497 9.48145 14.5497C8.06387 14.5497 8.02305 14.5422 7.86348 14.3233C7.77812 14.2045 7.77441 14.1637 7.76328 13.5737L7.75215 12.954H7.66309C7.61484 12.954 6.08594 12.6126 4.26387 12.1932C2.44551 11.7739 0.938867 11.4325 0.924023 11.4325C0.905469 11.4325 0.890625 12.4381 0.890625 13.7036Z" fill="#49C2BB"/>
</svg>
