<svg width="19" height="19" viewBox="0 0 19 19" fill="none" xmlns="http://www.w3.org/2000/svg">
<g clip-path="url(#clip0_41946_4238)">
<path d="M8.68555 0.962889C7.08242 1.11875 5.47187 1.76074 4.19531 2.75527C3.84277 3.03359 3.11172 3.75351 2.82227 4.11719C0.810938 6.63691 0.369336 10.077 1.6793 12.9678C1.77949 13.1904 1.8834 13.4205 1.90566 13.4725C1.93906 13.5578 1.87227 13.8139 1.43437 15.2723C1.15605 16.2111 0.929688 17.035 0.929688 17.1092C0.933398 17.4951 1.23398 17.9033 1.59395 18.0109C1.70527 18.0443 1.85 18.0703 1.9168 18.0703C1.98359 18.0703 2.79258 17.8439 3.71289 17.5693C4.62949 17.2947 5.40508 17.0684 5.43477 17.0684C5.46074 17.0684 5.65742 17.15 5.86895 17.2502C8.7375 18.6047 12.1404 18.2484 14.6898 16.3262C16.5527 14.9271 17.7811 12.7525 18.0334 10.4184C18.0854 9.95449 18.0854 9.0416 18.0334 8.57773C17.8961 7.28262 17.3988 5.8873 16.7012 4.82226C15.3504 2.75898 13.2092 1.38965 10.7637 1.01855C10.2887 0.948046 9.16797 0.918358 8.68555 0.962889ZM9.90645 4.87793C10.5633 5.2082 10.6004 6.09883 9.96953 6.48847C9.23477 6.94492 8.30703 6.14336 8.64844 5.34922C8.7375 5.14512 8.95273 4.92246 9.1457 4.83711C9.33867 4.75547 9.69863 4.77031 9.90645 4.87793ZM9.75801 7.66484C10.0029 7.73535 10.2293 7.93574 10.3406 8.18066L10.4297 8.36621V10.359V12.3518L10.6301 12.3926C10.9937 12.4668 11.2758 12.7451 11.3574 13.1088C11.4094 13.3426 11.3723 13.5393 11.2312 13.773C11.0902 14.0105 10.8676 14.159 10.5596 14.2146C10.2479 14.274 9.34238 14.2369 9.16055 14.159C8.97129 14.0773 8.7709 13.8955 8.67441 13.7137C8.59277 13.5652 8.59277 13.5318 8.57422 11.5205L8.55566 9.4832L8.38867 9.45352C8.02871 9.39043 7.69102 9.04902 7.63164 8.68164C7.56113 8.24375 7.86914 7.77617 8.30703 7.65742C8.5668 7.58691 9.5168 7.59062 9.75801 7.66484Z" fill="#49C2BB"/>
</g>
<defs>
<clipPath id="clip0_41946_4238">
<rect width="19" height="19" fill="white"/>
</clipPath>
</defs>
</svg>
