<svg width="19" height="19" viewBox="0 0 19 19" fill="none" xmlns="http://www.w3.org/2000/svg">
<path d="M9.06884 3.92649C8.3415 4.07493 7.76259 4.56477 7.47314 5.28098C7.33583 5.62239 7.30243 6.22356 7.39892 6.59836C7.59189 7.33684 8.15966 7.91575 8.9204 8.14211C9.26923 8.24602 9.81103 8.23118 10.1747 8.10501C10.8835 7.86379 11.4104 7.31086 11.5886 6.61321C11.6628 6.32376 11.6665 5.78938 11.5923 5.50735C11.4513 4.96555 11.0171 4.4052 10.5458 4.15657C10.1153 3.9302 9.52157 3.83743 9.06884 3.92649Z" fill="#49C2BB"/>
<path d="M3.14278 5.63647C2.43028 5.76264 1.86251 6.17827 1.55079 6.79428C1.39122 7.10971 1.32813 7.39175 1.32813 7.78882C1.32442 9.41421 3.0129 10.431 4.49356 9.69253C5.02051 9.42905 5.47696 8.82788 5.59571 8.24155C5.82579 7.12085 5.17637 6.02241 4.08907 5.69956C3.84415 5.62534 3.36915 5.59565 3.14278 5.63647Z" fill="#49C2BB"/>
<path d="M15.1926 5.6336C14.7139 5.70782 14.3502 5.89708 13.9865 6.26075C13.5598 6.68751 13.3594 7.16622 13.3594 7.75626C13.3594 8.14591 13.415 8.3797 13.5857 8.74337C13.8529 9.30001 14.3576 9.7045 14.9736 9.86407C15.4969 9.99766 15.9719 9.94942 16.4617 9.71563C17.2187 9.35196 17.6715 8.62833 17.6678 7.78595C17.6678 7.58184 17.6418 7.34063 17.6084 7.21446C17.4748 6.7172 17.1334 6.24219 16.6992 5.95645C16.3059 5.69669 15.6602 5.55938 15.1926 5.6336Z" fill="#49C2BB"/>
<path d="M8.04668 9.10654C6.90371 9.33662 6.01309 10.1716 5.70137 11.3071C5.62715 11.5743 5.61973 11.7005 5.60488 13.17L5.59375 14.7472L5.6791 14.8771C5.72734 14.9476 5.80898 15.0255 5.85723 15.0515C5.99082 15.1183 12.9971 15.1183 13.1307 15.0515C13.1789 15.0255 13.2605 14.9476 13.3088 14.8771L13.3941 14.7472L13.383 13.17C13.3682 11.6968 13.3607 11.5743 13.2865 11.3071C12.9674 10.153 12.0842 9.33291 10.9115 9.10283C10.5441 9.03232 8.40293 9.03604 8.04668 9.10654Z" fill="#49C2BB"/>
<path d="M2.25332 10.7969C1.6002 10.8971 0.980469 11.3609 0.687305 11.9621C0.475781 12.4 0.460938 12.5187 0.460938 13.7174C0.460938 14.7564 0.464648 14.8047 0.538867 14.9049C0.687305 15.1053 0.642773 15.1016 2.82852 15.1016H4.86582L4.83242 14.9828C4.81758 14.916 4.80273 14.1256 4.80273 13.2275C4.80273 11.7654 4.81016 11.565 4.87324 11.2978C4.96973 10.8785 4.96973 10.8637 4.83984 10.8228C4.69883 10.7746 2.53164 10.7561 2.25332 10.7969Z" fill="#49C2BB"/>
<path d="M14.2872 10.8006C14.1759 10.8191 14.072 10.8488 14.0534 10.8674C14.0386 10.8822 14.0497 10.9936 14.0794 11.1123C14.1981 11.5576 14.2167 11.9213 14.2056 13.4316C14.1981 14.2592 14.1759 14.9717 14.161 15.0162L14.1314 15.1016H16.1649C18.3544 15.1016 18.3099 15.1053 18.4583 14.9049C18.5325 14.8047 18.5362 14.7564 18.5362 13.7174C18.5362 12.5113 18.5214 12.4037 18.3024 11.9473C18.0612 11.4574 17.6085 11.0678 17.0333 10.8674C16.8032 10.7857 16.7327 10.782 15.6417 10.7746C15.0108 10.7672 14.3985 10.782 14.2872 10.8006Z" fill="#49C2BB"/>
</svg>
