<svg width="41" height="14" viewBox="0 0 41 14" fill="none" xmlns="http://www.w3.org/2000/svg">
<rect x="0.289053" y="0.289053" width="39.9225" height="12.7343" rx="6.36716" stroke="#49C2BB" stroke-width="0.578106"/>
<path d="M9.61458 3.06405C9.72859 2.84797 10.0381 2.84797 10.1521 3.06406L11.0674 4.79892C11.1114 4.88225 11.1915 4.94047 11.2843 4.95654L13.2171 5.29096C13.4579 5.33261 13.5535 5.62694 13.3832 5.80215L12.0161 7.20877C11.9505 7.27634 11.9199 7.37054 11.9333 7.4638L12.2125 9.40535C12.2473 9.64718 11.9969 9.82909 11.7776 9.72128L10.0174 8.85576C9.93285 8.81419 9.8338 8.81419 9.74925 8.85576L7.989 9.72128C7.76975 9.82909 7.51939 9.64718 7.55416 9.40535L7.83338 7.4638C7.84679 7.37054 7.81618 7.27634 7.75051 7.20877L6.38341 5.80214C6.21313 5.62694 6.30876 5.33261 6.5495 5.29096L8.48231 4.95654C8.57515 4.94047 8.65528 4.88225 8.69925 4.79892L9.61458 3.06405Z" fill="#49C2BB"/>
<path d="M16.9755 9.15625H16.272V3.45366H16.9636L20.0856 7.93116H20.1212V3.45366H20.8246V9.15625H20.133L17.011 4.69456H16.9755V9.15625ZM23.5435 5.46122C23.2089 5.46122 22.931 5.57188 22.7097 5.79318C22.491 6.01449 22.3698 6.30561 22.3461 6.66655H24.6896C24.6817 6.30561 24.5723 6.01449 24.3616 5.79318C24.1534 5.57188 23.8807 5.46122 23.5435 5.46122ZM24.6738 7.93906H25.3535C25.2955 8.30527 25.1006 8.60694 24.7686 8.84405C24.4366 9.07853 24.0428 9.19577 23.587 9.19577C22.9889 9.19577 22.5134 9.00213 22.1603 8.61484C21.8099 8.22755 21.6347 7.70327 21.6347 7.04198C21.6347 6.3807 21.8099 5.85114 22.1603 5.45332C22.5107 5.0555 22.9758 4.85658 23.5554 4.85658C24.1244 4.85658 24.575 5.04496 24.9069 5.4217C25.2389 5.79582 25.4049 6.3043 25.4049 6.94714V7.21587H22.3461V7.25539C22.3461 7.66111 22.4607 7.98517 22.6899 8.22755C22.9191 8.46994 23.2234 8.59113 23.6028 8.59113C23.8689 8.59113 24.0981 8.53317 24.2904 8.41724C24.4854 8.29869 24.6132 8.13929 24.6738 7.93906ZM31.5184 4.8961L30.325 9.15625H29.6294L28.6573 5.84456H28.6415L27.6693 9.15625H26.9738L25.7803 4.8961H26.46L27.3255 8.37773H27.3413L28.3174 4.8961H28.9813L29.9574 8.37773H29.9733L30.8387 4.8961H31.5184ZM32.3602 3.45366H33.0715L33.0241 7.26329H32.4076L32.3602 3.45366ZM32.7159 9.19577C32.5894 9.19577 32.4827 9.1523 32.3958 9.06536C32.3088 8.97841 32.2654 8.87171 32.2654 8.74525C32.2654 8.61616 32.3088 8.50946 32.3958 8.42515C32.4827 8.33821 32.5894 8.29474 32.7159 8.29474C32.845 8.29474 32.9517 8.33821 33.036 8.42515C33.1229 8.50946 33.1664 8.61616 33.1664 8.74525C33.1664 8.87171 33.1229 8.97841 33.036 9.06536C32.9517 9.1523 32.845 9.19577 32.7159 9.19577Z" fill="#49C2BB"/>
</svg>
