<svg width="19" height="19" viewBox="0 0 19 19" fill="none" xmlns="http://www.w3.org/2000/svg">
<g clip-path="url(#clip0_41946_4167)">
<path d="M18.8738 4.06719L19 4.19707V7.9377V11.6783L18.9035 11.7785L18.8033 11.875H17.4191H16.0387L15.9236 11.7785C15.8605 11.7266 15.8086 11.6598 15.8086 11.6338C15.8086 11.6078 15.7455 11.3629 15.6639 11.092C15.085 9.09922 14.9328 8.55371 14.7695 7.92656C14.4541 6.69082 14.25 5.60723 14.25 5.1582C14.25 4.95781 14.2611 4.9207 14.3502 4.83906C14.7807 4.43828 15.7975 4.19707 17.8162 4.00781C18.2541 3.96699 18.64 3.93359 18.6809 3.93359C18.718 3.93359 18.807 3.99297 18.8738 4.06719Z" fill="#49C2BB"/>
<path d="M1.85156 4.78691C2.85352 4.87598 3.99277 5.09492 4.82031 5.36211C5.2248 5.49199 5.34727 5.54766 5.44375 5.64785C5.51055 5.71465 5.5625 5.80742 5.5625 5.85938C5.5625 5.90762 5.48828 6.08945 5.39922 6.26387C4.90195 7.23984 3.62539 10.6984 3.25801 12.0641C3.21348 12.2311 3.14297 12.4166 3.10215 12.476C2.96113 12.6838 2.93145 12.6875 1.57324 12.6875C0.248437 12.6875 0.125977 12.6727 0.0369143 12.5094C0.00722647 12.4537 -0.00390625 11.2996 -0.00390625 8.68711V4.94277L0.0925784 4.84258L0.192773 4.74609L0.845899 4.7498C1.20586 4.75352 1.65859 4.76836 1.85156 4.78691Z" fill="#49C2BB"/>
<path d="M9.71406 5.65693C10.1779 5.78681 10.6418 6.10595 11.2689 6.72939C11.8961 7.35283 12.2375 7.9206 12.2746 8.39189L12.2969 8.64423L12.1336 8.71474C11.8812 8.82607 11.6252 8.84834 11.3766 8.77412C11.1613 8.71474 11.0129 8.58857 10.549 8.07275C10.4562 7.96884 10.4006 7.93916 10.3041 7.93916C10.1631 7.93916 9.91816 7.85752 9.46543 7.65712C9.16855 7.52353 9.14258 7.51982 8.96074 7.56064C8.78262 7.59775 8.68984 7.66455 7.84375 8.39189C7.33906 8.82607 6.74902 9.32334 6.53379 9.49775C5.63945 10.2177 4.80449 10.9747 4.35176 11.4757C3.98438 11.8876 3.97695 11.8208 4.29238 10.9265C4.96777 9.02275 5.49102 7.63486 5.77305 7.02627L5.91035 6.72197L6.34082 6.56982C6.58203 6.48818 7.11641 6.28408 7.53574 6.11709C7.95508 5.9538 8.42266 5.77568 8.5748 5.72744C8.93105 5.60869 9.43945 5.579 9.71406 5.65693Z" fill="#49C2BB"/>
<path d="M13.6412 6.3501C13.6486 6.37608 13.7154 6.67295 13.7896 7.01065C14.0383 8.14991 14.5133 9.90889 14.8027 10.7624L14.9141 11.0815L14.5578 11.4601C14.1682 11.8794 12.8211 12.9815 11.3145 14.1097C10.4238 14.7776 10.216 14.9038 9.81894 15.0077C9.58887 15.0671 9.24375 15.0819 9.24375 15.0337C9.24375 15.0189 9.55176 14.6997 9.93027 14.3212C10.5834 13.6681 10.6168 13.6273 10.6168 13.4937C10.6168 13.2896 10.4572 13.1337 10.2531 13.1337C10.1084 13.1337 10.0787 13.1597 9.22519 14.0058C8.73164 14.4956 8.30488 14.889 8.25664 14.9001C7.95977 14.9743 7.68516 14.8333 7.55156 14.5401L7.48477 14.3917L8.45703 13.4194C9.38848 12.488 9.4293 12.4398 9.4293 12.3062C9.4293 12.1021 9.26973 11.9462 9.06191 11.9462C8.91348 11.9462 8.89492 11.9648 7.88184 12.9853C7.18047 13.6903 6.81309 14.0392 6.73145 14.0651C6.53105 14.1282 6.21934 14.0726 6.05605 13.9353C5.7666 13.7015 5.69238 13.8128 6.99492 12.5065C8.10449 11.397 8.16758 11.3228 8.16758 11.1966C8.16758 10.9183 7.8373 10.7364 7.61465 10.896C7.5627 10.9294 7.01348 11.4712 6.38633 12.0946C5.76289 12.7218 5.21367 13.2487 5.16914 13.2599C5.1209 13.2747 5.00957 13.2636 4.90566 13.2265C4.66816 13.1485 4.58652 13.0075 4.6125 12.7144C4.62734 12.5362 4.66074 12.4583 4.80918 12.2394C5.13203 11.7681 5.63301 11.3079 7.33262 9.92745C7.59609 9.71221 8.13789 9.27432 8.52754 8.95518L9.24375 8.37627L9.3625 8.42452C9.4293 8.45049 9.49609 8.4876 9.50723 8.50245C9.53691 8.55069 9.93398 8.68057 10.0416 8.68057C10.1121 8.68057 10.19 8.73623 10.3236 8.88096C10.5537 9.13331 10.9396 9.40049 11.2291 9.5044C11.6336 9.64913 12.2348 9.59717 12.6578 9.38565C12.951 9.2335 13.1365 8.91436 13.1402 8.5544C13.1402 8.00518 12.7914 7.24815 12.2348 6.59131C12.1197 6.45401 12.027 6.33526 12.027 6.32413C12.027 6.31299 12.3869 6.30557 12.8248 6.30557C13.4334 6.30557 13.6301 6.3167 13.6412 6.3501Z" fill="#49C2BB"/>
</g>
<defs>
<clipPath id="clip0_41946_4167">
<rect width="19" height="19" fill="white" transform="matrix(-1 0 0 1 19 0)"/>
</clipPath>
</defs>
</svg>
