<svg width="19" height="19" viewBox="0 0 19 19" fill="none" xmlns="http://www.w3.org/2000/svg">
<path d="M9.02071 2.90232C8.90939 2.92829 8.75724 2.98025 8.68673 3.02107C8.27482 3.2363 1.37989 7.25525 1.30939 7.31833C1.12755 7.48533 1.13868 7.82302 1.33165 7.97888C1.55802 8.157 8.77579 12.3133 8.92794 12.3504C9.15802 12.4097 9.56993 12.4023 9.78517 12.3355C10.0338 12.2613 17.3258 8.01599 17.4186 7.89353C17.515 7.76365 17.515 7.51872 17.4186 7.38884C17.374 7.32576 16.168 6.60212 14.268 5.49997C10.2045 3.1324 9.97442 3.00251 9.80743 2.94685C9.58849 2.86892 9.24708 2.85036 9.02071 2.90232Z" fill="#49C2BB"/>
<path d="M16.8414 9.25899L16.2922 9.57813V11.5264V13.4746L16.2068 13.5414C16.1586 13.5785 16.0732 13.6973 16.0139 13.8086C15.9248 13.9719 15.9062 14.0498 15.9062 14.265C15.9062 14.484 15.9248 14.5582 16.0139 14.7252C16.192 15.0518 16.4814 15.2188 16.8674 15.2188C17.1383 15.2188 17.3387 15.1408 17.5316 14.959C17.7357 14.7623 17.8137 14.5768 17.8137 14.265C17.8137 13.957 17.7357 13.7641 17.5428 13.5785L17.4055 13.4523L17.398 11.1961L17.3869 8.93984L16.8414 9.25899Z" fill="#49C2BB"/>
<path d="M3.8308 11.7322C3.84936 13.6433 3.70463 13.4429 6.0685 14.8049C6.96654 15.3244 7.8349 15.8031 7.99818 15.8662C8.81459 16.1965 9.81654 16.2002 10.6404 15.881C10.7851 15.8254 11.646 15.3541 12.5478 14.8383C14.3958 13.7806 14.5665 13.6545 14.7372 13.2277C14.8226 13.0125 14.8263 12.9717 14.8374 11.7322C14.8449 10.8193 14.8374 10.4631 14.8078 10.4631C14.7855 10.4631 13.7687 11.042 12.5515 11.7508C11.3343 12.4595 10.2285 13.083 10.0949 13.1312C9.87963 13.2166 9.79799 13.224 9.33412 13.224C8.85912 13.224 8.79233 13.2166 8.56596 13.1275C8.42865 13.0718 7.32279 12.4521 6.10932 11.747C4.89584 11.042 3.88276 10.4631 3.86049 10.4631C3.8308 10.4631 3.82338 10.8045 3.8308 11.7322Z" fill="#49C2BB"/>
</svg>
