<svg width="19" height="19" viewBox="0 0 19 19" fill="none" xmlns="http://www.w3.org/2000/svg">
<g clip-path="url(#clip0_41946_4197)">
<path d="M10.5386 0.833155C12.4497 1.07808 14.1864 1.89819 15.5261 3.19331C16.0382 3.68687 16.361 4.06538 16.7507 4.648C17.4669 5.70933 17.953 6.98589 18.1534 8.32925C18.2276 8.84507 18.2165 10.2701 18.1349 10.7785C17.8751 12.3519 17.2702 13.7472 16.3388 14.9273C16.0679 15.2724 15.2737 16.0666 14.9286 16.3375C13.7523 17.2652 12.3384 17.8775 10.7798 18.1335C10.2046 18.2263 8.79444 18.2263 8.21925 18.1335C6.3378 17.8255 4.75323 17.0425 3.43956 15.7734C1.95147 14.3335 1.02003 12.4076 0.812216 10.3332C0.760262 9.78765 0.78624 8.70034 0.87159 8.16597C1.09796 6.71499 1.68429 5.36421 2.60831 4.13589C2.87921 3.77964 3.69933 2.94839 4.06671 2.66265C5.24679 1.73491 6.69405 1.10405 8.18214 0.866552C8.69425 0.784912 10.0302 0.766357 10.5386 0.833155ZM12.7466 2.65522C12.4646 2.8519 12.4275 2.89272 12.2567 3.20815C12.1603 3.38257 12.0638 3.50132 11.9562 3.57925L11.7929 3.69058L11.136 3.70913C10.4829 3.72769 10.4755 3.72769 10.2974 3.83901C9.87061 4.10249 9.82608 4.69995 10.2046 5.0228C10.2751 5.07847 10.8132 5.36792 11.4032 5.66479C12.4126 6.16577 13.2884 6.68901 13.5964 6.97105C13.6558 7.023 13.7671 7.20112 13.845 7.36069C14.012 7.70581 14.0306 7.9062 13.9155 8.19937C13.8265 8.42573 13.8228 8.60015 13.9007 8.78569C14.064 9.17534 14.4982 9.37573 14.8655 9.21987C15.1327 9.10855 16.361 8.34409 16.4687 8.22163C16.5466 8.13257 16.6357 7.92476 16.773 7.51284L16.9659 6.93394L16.8472 6.62964C16.272 5.17495 15.2478 3.88726 13.9786 3.01147C13.5778 2.73687 13.0546 2.44741 13.0101 2.47339C12.9878 2.48823 12.8691 2.56987 12.7466 2.65522ZM3.89601 3.96519C3.44327 4.42163 3.06847 4.89292 2.74932 5.41616L2.55636 5.73159L2.73448 5.74272C2.98311 5.76128 3.17237 5.69448 3.3505 5.5312C3.61397 5.28999 3.68819 5.26772 4.22257 5.26772H4.69757L5.19483 5.50894C5.60675 5.70933 5.72179 5.75015 5.87765 5.75015C6.36749 5.74644 6.7089 5.34194 6.59757 4.90034C6.56046 4.75562 6.48624 4.65913 6.10772 4.26948C5.66241 3.81304 5.65499 3.80933 5.14288 3.55698L4.63077 3.30093L4.47491 3.41968C4.39327 3.48276 4.12979 3.7314 3.89601 3.96519ZM3.84034 7.31245L3.39503 7.46831L2.63057 7.48687L1.86612 7.50171L1.80675 7.76519C1.66202 8.39233 1.6212 8.77456 1.61749 9.49819C1.61749 10.0214 1.63604 10.3332 1.68429 10.63C1.88097 11.8583 2.28175 12.89 2.94229 13.8771C3.26515 14.3595 3.60655 14.7529 3.63995 14.6824C3.64366 14.6787 3.65851 14.3484 3.66964 13.9513L3.69561 13.2277L4.09268 12.4298C4.47491 11.6654 4.49347 11.6171 4.52315 11.3166C4.55655 10.9751 4.61222 10.8341 4.7755 10.6783C4.92393 10.5335 5.12433 10.463 5.36925 10.463C5.54366 10.463 5.64757 10.4927 5.89991 10.6115C6.25987 10.7822 6.48995 10.8007 6.73858 10.6894C6.98351 10.5781 7.13565 10.3628 7.2878 9.9064C7.41026 9.54272 7.4214 9.4648 7.4214 9.10112C7.4214 8.37378 7.3546 8.26987 6.57901 7.75776L6.16339 7.48687L5.44718 7.30874C5.05382 7.20854 4.69015 7.12319 4.63819 7.11577C4.5046 7.09722 4.34874 7.13804 3.84034 7.31245ZM11.715 9.53159C11.637 9.55015 11.5183 9.61323 11.4441 9.67261C11.3698 9.72827 11.2771 9.8062 11.2325 9.84331C11.1843 9.88042 11.047 9.92124 10.906 9.93608C10.7687 9.95464 10.6165 9.99175 10.5683 10.0251C10.4569 10.0994 10.353 10.3035 10.353 10.4519C10.353 10.5076 10.3233 10.6152 10.2862 10.6857C10.2269 10.797 10.1192 10.8638 9.53663 11.1681C9.08761 11.3982 8.82784 11.5578 8.7796 11.6246C8.72022 11.7062 8.69796 11.799 8.69054 12.0216C8.67569 12.2962 8.69054 12.3556 8.88722 12.9568L9.10245 13.5988L9.49581 14.007C9.71476 14.2296 9.91515 14.4634 9.93741 14.5265C9.95968 14.5859 10.0562 15.0312 10.1526 15.5099C10.2677 16.1037 10.3456 16.4154 10.3976 16.4859C10.4755 16.5972 10.8429 16.7976 10.9876 16.8125C11.2103 16.831 11.2585 16.805 11.6259 16.4451C11.9599 16.1185 12.0118 16.048 12.1937 15.6806L12.3941 15.2761V14.3447C12.3941 13.1906 12.3792 13.2351 12.8802 12.9679L13.229 12.7824L13.6261 12.1886C14.0566 11.5466 14.1048 11.4167 14.0454 11.0345C14.012 10.8119 13.8933 10.6857 13.5259 10.489C13.2364 10.3369 13.2253 10.3257 13.0769 10.0437C12.8987 9.7023 12.7837 9.57612 12.613 9.5353C12.4386 9.49448 11.8857 9.49448 11.715 9.53159Z" fill="#49C2BB"/>
</g>
<defs>
<clipPath id="clip0_41946_4197">
<rect width="19" height="19" fill="white" transform="matrix(-1 0 0 1 19 0)"/>
</clipPath>
</defs>
</svg>
